<svg width="726" height="575" viewBox="0 0 726 575" fill="none" xmlns="http://www.w3.org/2000/svg">
<g id="undraw_basketball_agx4 2" clip-path="url(#clip0)">
<path id="Vector" d="M169.677 463.828C169.677 463.828 184.45 478.795 176.111 501.005C167.773 523.214 190.409 560.157 190.409 560.157L189.687 560.04C159.34 554.618 144.242 519.451 161.136 493.331C167.47 483.626 172.613 472.232 169.677 463.828Z" fill="#4285F4"/>
<path id="Vector_2" d="M169.677 463.828C169.677 463.828 178.016 482.179 169.677 497.146C161.338 512.113 168.234 554.15 190.409 560.157" stroke="#535461" stroke-miterlimit="10"/>
<path id="Vector_3" d="M143.391 524.376C143.391 524.376 160.249 521.658 161.785 536.961C163.322 552.264 194.203 554.391 194.203 554.391L193.626 554.778C168.126 571.74 143.752 565.58 147.459 543.085C148.758 534.695 148.678 526.284 143.391 524.376Z" fill="#4285F4"/>
<path id="Vector_4" d="M143.391 524.376C143.391 524.376 156.476 527.3 155.401 539.343C154.327 551.387 174.835 565.85 194.203 554.398" stroke="#535461" stroke-miterlimit="10"/>
<path id="Vector_5" opacity="0.6" d="M639.329 266.069C647.581 283.236 642.33 307.865 654.016 321.896C662.586 332.186 676.811 332.128 686.527 340.81C694.087 347.585 697.853 358.671 701.279 369.195L717.928 420.352C725.509 443.651 731.987 473.643 716.716 490.723C707.562 500.954 693.734 502.116 681.233 501.027C590.753 493.142 517.976 400.693 427.806 388.759C364.075 380.318 301.108 413.526 237.008 411.692C203.104 410.72 170.002 399.999 137.288 389.3C112.127 381.093 84.2036 370.299 72.2075 342.63C66.8478 330.264 65.1815 315.326 57.2178 305.161C51.1151 297.363 42.2929 293.672 34.7115 288.023C1.68789 263.387 -2.09922 208.284 0.778982 161.884C2.37317 136.145 5.07104 109.791 15.1195 86.9459C25.168 64.1005 44.0747 45.2089 65.6576 44.4635C79.3056 43.9884 92.3477 50.5804 105.628 54.2637C118.908 57.947 134.482 58.0567 144.451 46.9555C152.631 37.8422 155.199 23.204 163.379 14.0687C169.749 6.9725 178.636 4.21732 187.227 2.52913C233.43 -6.54762 282.648 9.20881 318.882 44.6681C327.69 53.2844 336.079 63.2235 346.842 67.645C361.175 73.5281 376.843 68.5439 391.998 68.6681C445.465 69.1066 481.728 127.733 519.411 164.69C541.441 186.301 562.75 190.956 586.656 205.353C601.451 214.269 630.406 247.514 639.329 266.069Z" fill="#224680"/>
<path id="Vector_6" d="M44.4788 107.335C44.4788 107.335 181.219 -29.6712 358.354 107.335V225.728C358.354 225.728 219.429 310.627 44.486 225.728L44.4788 107.335Z" fill="url(#paint0_linear)"/>
<path id="Vector_7" d="M54.4045 110.346C54.4045 110.346 182.481 -18.0147 348.429 110.346V221.27C348.429 221.27 218.289 300.797 54.4045 221.27V110.346Z" fill="url(#paint1_linear)"/>
<path id="Vector_8" d="M240.002 175.849H162.088V242.873H240.002V175.849Z" fill="url(#paint2_linear)"/>
<path id="Vector_9" d="M233.387 181.535H168.703V237.18H233.387V181.535Z" fill="url(#paint3_linear)"/>
<g id="Group" opacity="0.1">
<path id="Vector_10" opacity="0.1" d="M228.316 345.019L203.739 302.12L181.94 343.514L163.026 300.132L143.348 344.303L142.662 344.025C150.597 320.551 142.727 254.01 142.662 253.338L142.359 250.846L163.048 298.298L180.295 259.564L203.761 300.541L225.221 259.733L243.399 301.762L261.044 253.696L265.458 252.804L265.358 253.345C265.228 254.032 253.174 318.388 260.027 340.21L261.657 343.981L261.008 344.325C260.303 343.107 259.741 341.809 259.334 340.459L243.464 303.75L228.316 345.019ZM204.143 301.323L228.164 343.28L243.032 302.785L225.156 261.457L204.143 301.323ZM163.401 299.197L181.94 341.811L203.278 301.338L180.331 261.194L163.401 299.197ZM143.622 255.669C144.877 267.128 149.76 316.013 144.596 339.604L162.629 299.197L143.622 255.669ZM243.832 302.77L258.31 336.242C253.91 312.417 263.359 260.156 264.542 253.769L261.606 254.361L243.832 302.77Z" fill="url(#paint4_linear)"/>
</g>
<g id="Group_2" opacity="0.1">
<path id="Vector_11" opacity="0.1" d="M164.281 345.114L146.045 298.861L146.731 298.583L164.317 343.163L181.94 302.42L158.445 258.688L159.088 258.329L182.308 301.557L199.916 260.865H200.133L252.416 255.859L203.985 343.433L182.394 303.238L164.281 345.114ZM182.77 302.383L203.992 341.891L251.103 256.714L200.436 261.567L182.77 302.383Z" fill="url(#paint5_linear)"/>
</g>
<g id="Group_3" opacity="0.1">
<path id="Vector_12" opacity="0.1" d="M242.26 342.819L241.885 342.088L198.517 257.189L199.173 256.846L242.166 341.007L258.324 298.59L259.009 298.861L242.26 342.819Z" fill="url(#paint6_linear)"/>
</g>
<path id="Vector_13" d="M202.52 242.127C168.011 242.127 140.044 246.797 140.044 252.556C140.044 258.315 168.018 262.985 202.52 262.985C237.023 262.985 264.997 258.315 264.997 252.556C264.997 246.797 237.023 242.127 202.52 242.127ZM202.52 258.512C170.853 258.512 145.187 255.508 145.187 251.811C145.187 248.113 170.853 245.116 202.52 245.116C234.188 245.116 259.846 248.105 259.846 251.811C259.846 255.516 234.18 258.512 202.52 258.512V258.512Z" fill="url(#paint7_linear)"/>
<g id="Group_4" opacity="0.2">
<path id="Vector_14" opacity="0.2" d="M202.52 242.127C168.011 242.127 140.044 246.797 140.044 252.556C140.044 258.315 168.018 262.985 202.52 262.985C237.023 262.985 264.997 258.315 264.997 252.556C264.997 246.797 237.023 242.127 202.52 242.127ZM202.52 258.512C170.853 258.512 145.187 255.508 145.187 251.811C145.187 248.113 170.853 245.116 202.52 245.116C234.188 245.116 259.846 248.105 259.846 251.811C259.846 255.516 234.18 258.512 202.52 258.512V258.512Z" fill="url(#paint8_linear)"/>
</g>
<path id="Vector_15" d="M202.52 239.898C168.011 239.898 140.044 244.568 140.044 250.327C140.044 256.086 168.018 260.756 202.52 260.756C237.023 260.756 264.997 256.086 264.997 250.327C264.997 244.568 237.023 239.898 202.52 239.898ZM202.52 256.283C170.853 256.283 145.187 253.279 145.187 249.582C145.187 245.884 170.86 242.88 202.52 242.88C234.18 242.88 259.846 245.847 259.846 249.574C259.846 253.301 234.18 256.276 202.52 256.276V256.283Z" fill="url(#paint9_linear)"/>
<path id="Vector_16" d="M219.09 261.662H187.35V555.451H219.09V261.662Z" fill="#A1167A"/>
<path id="Vector_17" d="M47.4075 111.114C47.4075 111.114 181.579 -23.3569 355.426 111.114V227.314C355.426 227.314 219.09 310.627 47.4075 227.314V111.114Z" fill="#E8EAF1"/>
<path id="Vector_18" d="M57.1458 114.073C57.1458 114.073 182.835 -11.8977 345.688 114.073V222.921C345.688 222.921 218.008 300.965 57.1458 222.921V114.073Z" fill="#A1167A"/>
<path id="Vector_19" d="M239.288 178.349H162.824V244.122H239.288V178.349Z" fill="white"/>
<path id="Vector_20" d="M232.795 183.932H169.316V238.539H232.795V183.932Z" fill="#A1167A"/>
<path id="Vector_21" opacity="0.1" d="M227.818 344.369L203.696 302.244L182.265 342.885L163.704 300.315L144.43 343.667L143.759 343.397C151.578 320.354 143.824 255.055 143.759 254.398L143.463 251.949L163.769 298.517L180.699 260.515L203.725 300.709L224.839 260.661L242.678 301.908L259.991 254.734L264.319 253.857L264.218 254.39C264.088 255.07 252.258 318.22 258.988 339.64L260.589 343.338L259.947 343.674C259.255 342.479 258.703 341.206 258.303 339.881L242.721 303.852L227.818 344.369ZM204.1 301.484L227.674 342.658L242.26 302.924L224.724 262.363L204.1 301.484ZM164.108 299.423L182.33 341.226L203.249 301.506L180.707 262.13L164.108 299.423ZM144.697 256.707C145.93 267.947 150.72 315.903 145.649 339.077L163.315 299.423L144.697 256.707ZM243.039 302.902L257.242 335.738C252.914 312.351 262.191 261.07 263.359 254.807L260.474 255.391L243.039 302.902Z" fill="#F3F5F7"/>
<path id="Vector_22" opacity="0.1" d="M164.974 344.464L147.077 299.072L147.748 298.802L165.01 342.571L182.322 302.566L159.239 259.652L159.874 259.301L182.661 301.689L199.974 261.757H200.183L251.493 256.846L203.934 342.812L182.748 303.348L164.974 344.464ZM183.116 302.529L203.941 341.299L250.18 257.708L200.457 262.466L183.116 302.529Z" fill="black"/>
<path id="Vector_23" opacity="0.1" d="M241.502 342.213L241.127 341.489L198.567 258.176L199.209 257.84L241.401 340.429L257.264 298.802L257.935 299.065L241.502 342.213Z" fill="black"/>
<path id="Vector_24" d="M202.499 243.391C168.638 243.391 141.183 247.974 141.183 253.623C141.183 259.272 168.638 263.854 202.499 263.854C236.359 263.854 263.814 259.272 263.814 253.623C263.814 247.974 236.359 243.391 202.499 243.391ZM202.499 259.469C171.423 259.469 146.233 256.546 146.233 252.892C146.233 249.238 171.423 246.315 202.499 246.315C233.575 246.315 258.764 249.238 258.764 252.892C258.764 256.546 233.575 259.469 202.499 259.469Z" fill="#5F546F"/>
<path id="Vector_25" opacity="0.2" d="M202.499 243.391C168.638 243.391 141.183 247.974 141.183 253.623C141.183 259.272 168.638 263.854 202.499 263.854C236.359 263.854 263.814 259.272 263.814 253.623C263.814 247.974 236.359 243.391 202.499 243.391ZM202.499 259.469C171.423 259.469 146.233 256.546 146.233 252.892C146.233 249.238 171.423 246.315 202.499 246.315C233.575 246.315 258.764 249.238 258.764 252.892C258.764 256.546 233.575 259.469 202.499 259.469Z" fill="black"/>
<path id="Vector_26" d="M202.499 241.199C168.638 241.199 141.183 245.781 141.183 251.431C141.183 257.08 168.638 261.662 202.499 261.662C236.359 261.662 263.814 257.08 263.814 251.431C263.814 245.781 236.359 241.199 202.499 241.199ZM202.499 257.277C171.423 257.277 146.233 254.354 146.233 250.7C146.233 247.046 171.423 244.122 202.499 244.122C233.575 244.122 258.764 247.046 258.764 250.7C258.764 254.354 233.575 257.277 202.499 257.277Z" fill="#5F546F"/>
<path id="Vector_27" opacity="0.9" d="M426.602 538.174C407.06 543.736 385.528 538.05 366.282 544.583C364.587 545.069 363.004 545.889 361.622 546.995C357.02 551.066 358.838 559.01 362.949 563.585C369.521 570.893 379.851 573.173 389.553 574.152C436.946 578.925 484.346 561.56 531.797 565.214C538.852 565.763 547.075 566.355 551.807 561.027C555.299 557.102 555.537 551.051 553.813 546.067C550.646 536.917 541.896 530.669 532.684 528.045C523.473 525.421 513.713 525.853 504.147 526.284C491.163 526.883 478.071 526.715 465.122 527.585C451.279 528.549 439.716 534.469 426.602 538.174Z" fill="#A1167A"/>
<path id="Vector_28" d="M430.973 240.622C430.973 240.622 394.581 262.1 402.357 249.925C405.72 244.797 407.48 238.761 407.406 232.605C407.405 230.595 407.138 228.594 406.613 226.656L421.805 219.494C421.542 221.602 421.729 223.743 422.353 225.771C424.481 233.387 430.973 240.622 430.973 240.622Z" fill="#DB8B8B"/>
<path id="Vector_29" opacity="0.1" d="M422.331 225.779C420.89 228.388 418.66 230.46 415.969 231.69C413.279 232.92 410.27 233.243 407.385 232.612C407.384 230.602 407.117 228.601 406.591 226.663L421.783 219.501C421.52 221.609 421.707 223.75 422.331 225.779V225.779Z" fill="black"/>
<path id="Vector_30" d="M410.306 232.21C417.916 232.21 424.084 225.96 424.084 218.251C424.084 210.542 417.916 204.293 410.306 204.293C402.697 204.293 396.529 210.542 396.529 218.251C396.529 225.96 402.697 232.21 410.306 232.21Z" fill="#DB8B8B"/>
<path id="Vector_31" opacity="0.1" d="M401.499 210.826C402.83 211.103 404.006 211.888 404.781 213.019C405.69 214.48 405.668 216.483 406.945 217.623C407.908 218.344 409.113 218.654 410.299 218.485C411.472 218.313 412.659 218.271 413.841 218.361C415.753 218.675 417.318 220.108 418.378 221.745C419.343 223.442 420.2 225.2 420.946 227.007C421.251 227.723 421.687 228.375 422.23 228.929C422.505 229.203 422.839 229.408 423.206 229.527C423.574 229.647 423.963 229.677 424.344 229.616C425.332 227.423 424.481 224.763 425.426 222.578C425.937 221.652 426.503 220.759 427.121 219.903C428.564 217.426 428.369 214.327 427.944 211.484C427.489 208.422 426.797 205.301 425.058 202.758C423.32 200.215 420.326 198.373 417.296 198.746C414.887 199.067 412.773 200.741 410.35 200.887C408.64 200.989 406.988 200.31 405.358 199.776C403.606 199.204 401.808 198.788 399.984 198.534C398.772 198.366 397.351 198.337 396.536 199.265C396.212 199.667 395.967 200.128 395.814 200.624L394.249 205.009C394.168 205.158 394.126 205.325 394.126 205.495C394.126 205.665 394.168 205.832 394.249 205.981C394.393 206.156 394.639 206.208 394.826 206.339C396.067 207.15 394.401 209.153 395.425 210.139C396.449 211.126 400.063 210.483 401.499 210.826Z" fill="black"/>
<path id="Vector_32" d="M401.852 210.468C403.184 210.744 404.359 211.53 405.134 212.661C406.043 214.122 406.021 216.125 407.298 217.265C408.262 217.986 409.466 218.296 410.653 218.127C411.825 217.954 413.013 217.913 414.194 218.003C416.106 218.317 417.671 219.75 418.732 221.387C419.696 223.084 420.554 224.842 421.3 226.648C421.605 227.365 422.04 228.017 422.584 228.57C422.858 228.845 423.193 229.05 423.56 229.169C423.927 229.289 424.317 229.319 424.697 229.257C425.686 227.065 424.834 224.405 425.779 222.22C426.29 221.294 426.857 220.401 427.475 219.545C428.917 217.067 428.723 213.969 428.297 211.126C427.843 208.064 427.15 204.943 425.412 202.4C423.673 199.857 420.679 198.015 417.65 198.388C415.24 198.709 413.127 200.383 410.703 200.529C408.993 200.631 407.342 199.952 405.711 199.418C403.959 198.846 402.161 198.43 400.337 198.176C399.125 198.008 397.704 197.978 396.889 198.907C396.565 199.309 396.32 199.77 396.168 200.266L394.602 204.651C394.522 204.8 394.479 204.967 394.479 205.137C394.479 205.307 394.522 205.474 394.602 205.623C394.747 205.798 394.992 205.849 395.18 205.981C396.42 206.792 394.754 208.795 395.778 209.781C396.803 210.768 400.417 210.125 401.852 210.468Z" fill="#472727"/>
<path id="Vector_33" d="M477.609 239.547C477.609 239.547 466.659 249.925 451.467 252.074C451.467 252.074 446.951 253.111 443.705 259.155C442.522 261.427 441.683 263.866 441.216 266.39L424.914 238.407L423.904 236.675H451.106C453.195 234.135 455.78 232.061 458.698 230.583C461.617 229.105 464.806 228.256 468.065 228.088L472.307 225.223C472.307 225.223 468.065 191.935 461.71 190.144C461.71 190.144 458.608 187.002 455.081 183.947C452.915 182.105 451.507 179.51 451.132 176.671C450.757 173.832 451.442 170.953 453.054 168.6C453.14 168.475 453.227 168.351 453.321 168.234C456.928 163.462 464.466 165.121 465.981 170.953C467.033 174.914 467.849 178.936 468.426 182.997L470.193 189.084L476.556 202.327L486.799 227.379C486.799 227.379 488.912 233.109 477.609 239.547Z" fill="#DB8B8B"/>
<path id="Vector_34" d="M396.348 240.98L394.227 259.981L389.459 260.251L387.865 260.339C387.865 260.339 381.503 266.785 375.148 268.926C368.792 271.068 360.309 276.804 360.309 276.804L334.521 288.234L326.045 292.174C326.045 292.174 304.844 307.236 300.603 300.403C296.361 293.569 318.997 286.773 318.997 286.773L333.836 278.895C354.329 260.997 361.391 262.817 361.391 262.817L377.261 253.513C381.14 247.762 386.877 243.562 393.484 241.637C394.422 241.347 395.379 241.128 396.348 240.98V240.98Z" fill="#DB8B8B"/>
<path id="Vector_35" opacity="0.1" d="M443.705 259.155C442.522 261.427 441.683 263.866 441.216 266.39L424.914 238.407C425.302 237.861 425.643 237.282 425.931 236.675C426.348 235.818 426.677 234.919 426.912 233.993L429.271 234.534L435.655 235.996L437.869 236.5C437.869 236.558 437.826 236.617 437.812 236.675C434.84 245.518 440.445 254.778 443.705 259.155Z" fill="black"/>
<path id="Vector_36" opacity="0.1" d="M396.348 240.98L394.227 259.981L389.459 260.251C391.486 256.597 392.864 246.921 393.492 241.667C394.426 241.367 395.381 241.137 396.348 240.98V240.98Z" fill="black"/>
<path id="Vector_37" d="M442.421 273.011C437.121 282.904 434.39 294 434.486 305.255V306.658V306.841C434.486 306.841 438.374 317.577 434.486 317.577C430.598 317.577 430.952 322.948 426.01 324.023C421.069 325.097 403.749 332.61 398.455 329.394C393.16 326.178 389.625 319.375 389.625 319.375V261.026C389.697 260.938 389.769 260.843 389.834 260.741C392.886 256.356 394.574 238.086 394.574 238.086C395.582 238.243 396.598 238.343 397.618 238.385C400.655 238.532 404.11 238.385 405.856 238.298L406.938 238.232C409.989 240.651 414.151 241.002 416.214 241.002C416.938 241.004 417.662 241.058 418.378 241.162C424.344 242.01 426.162 233.979 426.162 233.979L428.521 234.519L434.905 235.981L437.119 236.485C433.145 247.893 443.611 260.091 444.931 261.567L445.069 261.72C445.181 265.654 444.268 269.549 442.421 273.011Z" fill="#4285F4"/>
<path id="Vector_38" opacity="0.1" d="M445.105 262.1C445.101 262.063 445.085 262.029 445.061 262.001C445.036 261.973 445.003 261.954 444.967 261.947C442.082 261.216 445.285 262.276 442.082 261.216C441.959 261.172 442.255 260.683 442.255 260.683C442.353 264.613 441.427 268.499 439.572 271.952C434.271 281.844 431.541 292.94 431.637 304.196V305.599V305.774C431.637 305.774 435.525 316.51 431.637 316.51C427.749 316.51 428.102 321.881 423.161 322.956C418.631 323.942 403.735 330.322 397.192 328.912C397.596 329.211 398.007 329.496 398.433 329.752C403.735 332.975 421.047 325.455 425.989 324.381C430.93 323.306 430.584 317.935 434.465 317.935C438.345 317.935 434.465 307.199 434.465 307.199V307.016V305.613C434.369 294.358 437.099 283.262 442.399 273.37C444.262 269.919 445.195 266.032 445.105 262.1V262.1Z" fill="black"/>
<path id="Vector_39" opacity="0.1" d="M407.796 238.992C407.63 238.875 407.457 238.751 407.298 238.627H406.923C407.212 238.773 407.508 238.882 407.796 238.992Z" fill="black"/>
<path id="Vector_40" d="M519.296 418.159L515.061 427.821C513.853 425.807 512.528 423.867 511.094 422.011V422.011C509.037 419.227 506.609 416.746 503.88 414.637C500.927 412.46 498.139 410.061 495.542 407.46C493.551 405.509 491.372 403.572 489.828 402.761C488.932 402.305 488.075 401.772 487.268 401.168C484.454 398.975 478.929 394.481 477.623 391.316C477.623 391.316 466.32 380.581 461.371 378.432L456.437 372.585L450.767 365.884L465.252 351.209L469.515 357.253L475.856 366.242C478.724 369.853 482.005 373.106 485.63 375.933C489.242 378.586 492.577 381.606 495.585 384.944C500.327 390.168 504.488 395.906 507.992 402.052L517.103 415.024L517.168 415.126L518.61 417.165L519.296 418.159Z" fill="#DB8B8B"/>
<path id="Vector_41" d="M429.559 419.234L423.904 432.834L419.316 427.821L417.426 423.801L415.781 420.301L407.652 415.287L399.717 410.04C398.347 409.135 396.852 408.441 395.281 407.979C388.421 405.947 389.604 402.045 389.604 402.045L390.231 391.916L390.664 384.863L409.419 382.715L408.481 388.086L407.298 394.883C414.368 395.957 418.955 407.767 418.955 407.767C421.747 412.013 424.394 413.774 425.873 414.476C426.258 414.673 426.665 414.822 427.085 414.922L429.559 419.234Z" fill="#DB8B8B"/>
<path id="Vector_42" opacity="0.1" d="M517.167 415.134L517.002 415.039H517.102L517.167 415.134Z" fill="black"/>
<path id="Vector_43" opacity="0.1" d="M519.296 418.159L515.061 427.821C513.853 425.807 512.528 423.867 511.094 422.011C511.743 422.639 515.372 425.986 516.533 422.931C516.978 421.686 517.491 420.466 518.069 419.277C518.428 418.644 518.61 417.924 518.596 417.195L519.296 418.159Z" fill="black"/>
<path id="Vector_44" opacity="0.1" d="M429.559 419.234L423.904 432.834L419.316 427.821L417.426 423.801L422.851 427.455C428.182 424.079 426.126 415.448 425.88 414.483C426.265 414.68 426.672 414.83 427.092 414.929L429.559 419.234Z" fill="black"/>
<path id="Vector_45" d="M426.205 414.761C426.205 414.761 428.852 424.262 423.204 427.828L415.781 422.815C415.781 422.815 414.339 426.396 418.963 431.051C420.683 432.613 422.024 434.555 422.882 436.728C423.741 438.9 424.093 441.244 423.911 443.577C423.911 443.577 424.633 452.164 428.86 450.023C428.86 450.023 435.575 448.561 435.222 436.78C435.222 436.78 432.546 426.951 435.662 422.793C435.749 422.681 435.838 422.571 435.929 422.464C439.464 418.525 434.869 412.444 434.869 412.444C434.869 412.444 426.559 409.039 426.205 414.761Z" fill="#535461"/>
<path id="Vector_46" opacity="0.1" d="M434.508 317.584C430.62 317.584 430.973 322.956 426.032 324.03C421.091 325.104 403.771 332.617 398.476 329.401C393.181 326.186 389.647 319.382 389.647 319.382V318.651C398.476 323.306 409.433 318.651 409.433 318.651C417.239 320.171 430.663 309.801 434.515 306.651V306.834C434.515 306.834 438.389 317.584 434.508 317.584Z" fill="black"/>
<path id="Vector_47" opacity="0.1" d="M390.693 384.871L409.448 382.722L408.51 388.093C402.703 390.827 394.343 391.667 390.289 391.923L390.693 384.871Z" fill="black"/>
<path id="Vector_48" opacity="0.1" d="M469.501 357.268C468.614 363.845 461.357 369.494 456.423 372.615L450.753 365.913L465.238 351.238L469.501 357.268Z" fill="black"/>
<path id="Vector_49" d="M409.419 319.367C409.419 319.367 398.469 324.023 389.632 319.367L387.865 343.711C387.865 343.711 388.219 354.447 386.805 360.52C385.391 366.593 387.865 391.302 387.865 391.302C387.865 391.302 409.773 390.944 414.007 382.715C414.007 382.715 423.19 364.101 421.43 357.662L440.509 361.959L451.82 374.471C451.82 374.471 471.254 365.168 469.486 353.708L443.337 322.583L435.568 306.505C435.568 306.505 418.609 321.158 409.419 319.367Z" fill="#4285F4"/>
<path id="Vector_50" opacity="0.3" d="M428.557 234.541C420.687 248.946 409.08 240.973 405.863 238.327L406.945 238.261C409.996 240.68 414.158 241.031 416.221 241.031C416.946 241.034 417.669 241.087 418.386 241.192C424.351 242.04 426.169 234.008 426.169 234.008L428.557 234.541Z" fill="white"/>
<path id="Vector_51" d="M517.37 415.397C518.58 415.328 519.787 415.58 520.871 416.129C521.955 416.677 522.879 417.503 523.552 418.525C523.552 418.525 532.728 426.359 537.669 427.09C537.669 427.09 552.507 433.536 548.266 442.481C544.024 451.426 533.781 443.212 533.781 443.212C533.781 443.212 522.831 433.192 519.296 433.908C519.296 433.908 509.579 428.003 511.361 422.274C511.361 422.274 515.617 426.659 516.901 423.29C517.343 422.044 517.854 420.824 518.43 419.635C519.116 418.262 519.469 416.471 517.37 415.397Z" fill="#535461"/>
<path id="Vector_52" opacity="0.1" d="M407.096 319.455C403.403 320.544 395.973 321.998 389.64 318.658L389.524 320.259C397.207 323.087 405.704 320.003 407.096 319.455Z" fill="black"/>
<path id="Vector_53" opacity="0.1" d="M415.125 318.198C413.285 318.802 411.333 318.969 409.419 318.688C409.419 318.688 408.64 319.017 407.342 319.418C409.599 319.806 412.312 319.243 415.125 318.198Z" fill="black"/>
<path id="Vector_54" opacity="0.3" d="M413.307 264.782C408.33 264.782 404.297 270.629 404.297 277.85C404.297 285.07 408.33 290.917 413.307 290.917C418.285 290.917 422.317 285.07 422.317 277.85C422.317 270.629 418.285 264.782 413.307 264.782ZM413.307 285.545C410.379 285.545 407.998 282.103 407.998 277.85C407.998 273.596 410.371 270.154 413.307 270.154C416.243 270.154 418.616 273.596 418.616 277.85C418.616 282.103 416.236 285.545 413.307 285.545V285.545Z" fill="white"/>
<g id="Basketball">
<path id="Vector_55" d="M472.357 172.568C472.357 172.992 472.357 173.411 472.357 173.825C472.357 174.052 472.357 174.278 472.307 174.497C472.004 178.251 470.763 181.866 468.7 184.999C468.563 185.211 468.419 185.416 468.274 185.62C466.307 188.415 463.71 190.694 460.699 192.267C457.688 193.841 454.35 194.664 450.962 194.668C450.479 194.668 449.995 194.668 449.519 194.617C449.043 194.566 448.632 194.544 448.192 194.485C445.134 194.065 442.202 192.98 439.597 191.303C436.992 189.627 434.776 187.399 433.101 184.773C432.986 184.605 432.878 184.422 432.777 184.254V184.217C430.661 180.71 429.545 176.678 429.552 172.568C429.551 171.472 429.628 170.378 429.783 169.294L429.898 168.563C430.483 165.219 431.821 162.057 433.808 159.322C435.794 156.587 438.376 154.353 441.354 152.792L442.133 152.405C444.665 151.221 447.402 150.555 450.189 150.446C452.975 150.337 455.756 150.787 458.37 151.769C459.051 152.025 459.718 152.318 460.368 152.646V152.646C465.16 155.064 468.903 159.189 470.879 164.229C470.951 164.397 471.008 164.558 471.066 164.726C471.955 167.241 472.392 169.897 472.357 172.568V172.568Z" fill="#F88787"/>
<path id="Vector_56" opacity="0.5" d="M470.979 164.726C469.607 165.139 468.184 165.348 466.752 165.348H466.507H465.944C465.598 165.348 465.259 165.304 464.935 165.26C462.129 164.92 459.441 163.919 457.086 162.337V162.337C450.789 155.832 444.621 153.611 441.289 152.836L442.068 152.449C445.343 153.289 450.659 155.372 456.192 160.634C457.618 162.001 459.301 163.065 461.14 163.762C462.404 164.235 463.719 164.556 465.057 164.719C465.346 164.719 465.627 164.777 465.908 164.799H466.478C467.941 164.84 469.4 164.653 470.806 164.244C470.857 164.427 470.922 164.587 470.979 164.726Z" fill="white"/>
<path id="Vector_57" opacity="0.5" d="M472.321 173.825C472.321 174.052 472.321 174.278 472.271 174.497C470.426 173.302 468.454 172.321 466.392 171.574L465.851 171.377C460.935 169.703 455.857 168.567 450.702 167.986C438.584 166.422 432.539 167.883 429.66 169.272L429.776 168.541C432.892 167.153 439.031 165.888 450.774 167.401C455.925 167.984 461.002 169.108 465.923 170.756L466.464 170.953C468.513 171.692 470.477 172.655 472.321 173.825V173.825Z" fill="white"/>
<path id="Vector_58" opacity="0.5" d="M466.464 171.004C466.464 171.201 466.421 171.399 466.399 171.603C466.274 172.602 466.096 173.647 465.865 174.738C465.687 175.562 465.49 176.354 465.274 177.114C465.216 177.311 465.158 177.508 465.101 177.698C462.359 186.592 456.783 191.101 452.376 193.352C451.44 193.834 450.476 194.259 449.49 194.624L448.163 194.492C449.548 194.056 450.894 193.504 452.188 192.841C456.516 190.648 461.991 186.168 464.66 177.362C464.718 177.187 464.769 177.004 464.819 176.821C465.021 176.115 465.204 175.384 465.367 174.629C465.603 173.533 465.783 172.461 465.908 171.413C465.908 171.216 465.952 171.011 465.973 170.814C466.157 169.001 466.157 167.175 465.973 165.362C465.973 165.172 465.937 164.982 465.908 164.799C465.469 160.863 463.783 157.176 461.104 154.29C460.229 153.362 459.262 152.526 458.219 151.798C458.9 152.055 459.567 152.347 460.217 152.675V152.675C460.64 153.05 461.059 153.459 461.472 153.903C464.229 156.907 465.953 160.735 466.385 164.814C466.385 164.997 466.428 165.187 466.449 165.369C466.647 167.242 466.652 169.13 466.464 171.004V171.004Z" fill="white"/>
<path id="Vector_59" opacity="0.5" d="M468.642 185.007C468.505 185.218 468.361 185.423 468.217 185.628C467.611 182.967 466.64 180.407 465.331 178.02C465.263 177.901 465.178 177.793 465.079 177.698C464.935 177.565 464.772 177.454 464.596 177.369C461.818 175.974 453.523 178.312 447.355 181.689C442.609 184.29 436.398 184.751 433 184.78L432.676 184.261V184.225C435.922 184.225 442.299 183.83 447.103 181.199C452.874 178.056 461.458 175.352 464.762 176.814C464.937 176.892 465.103 176.987 465.259 177.099C465.486 177.263 465.677 177.472 465.822 177.713C467.072 180.009 468.02 182.461 468.642 185.007V185.007Z" fill="white"/>
</g>
<path id="Vector_60" opacity="0.1" d="M218.729 544.123H186.99V547.777H218.729V544.123Z" fill="black"/>
<path id="Vector_61" opacity="0.3" d="M131.2 69.8443L57.1458 145.462V163.367L141.184 66.5775L131.2 69.8443Z" fill="white"/>
<path id="Vector_62" opacity="0.3" d="M156.758 62.5726L57.1458 190.407V209.357L181.608 58.8162L156.758 62.5726Z" fill="white"/>
</g>
<defs>
<linearGradient id="paint0_linear" x1="118062" y1="90568.6" x2="118062" y2="26118.9" gradientUnits="userSpaceOnUse">
<stop stop-color="#808080" stop-opacity="0.25"/>
<stop offset="0.54" stop-color="#808080" stop-opacity="0.12"/>
<stop offset="1" stop-color="#808080" stop-opacity="0.1"/>
</linearGradient>
<linearGradient id="paint1_linear" x1="110607" y1="82952.3" x2="110607" y2="26389.1" gradientUnits="userSpaceOnUse">
<stop stop-color="#808080" stop-opacity="0.25"/>
<stop offset="0.54" stop-color="#808080" stop-opacity="0.12"/>
<stop offset="1" stop-color="#808080" stop-opacity="0.1"/>
</linearGradient>
<linearGradient id="paint2_linear" x1="21877.4" y1="22449.7" x2="21877.4" y2="16303" gradientUnits="userSpaceOnUse">
<stop stop-color="#808080" stop-opacity="0.25"/>
<stop offset="0.54" stop-color="#808080" stop-opacity="0.12"/>
<stop offset="1" stop-color="#808080" stop-opacity="0.1"/>
</linearGradient>
<linearGradient id="paint3_linear" x1="18196.7" y1="18240.4" x2="18196.7" y2="14003.6" gradientUnits="userSpaceOnUse">
<stop stop-color="#808080" stop-opacity="0.25"/>
<stop offset="0.54" stop-color="#808080" stop-opacity="0.12"/>
<stop offset="1" stop-color="#808080" stop-opacity="0.1"/>
</linearGradient>
<linearGradient id="paint4_linear" x1="46849.9" y1="50040.2" x2="46849.9" y2="37906" gradientUnits="userSpaceOnUse">
<stop stop-color="#808080" stop-opacity="0.25"/>
<stop offset="0.54" stop-color="#808080" stop-opacity="0.12"/>
<stop offset="1" stop-color="#808080" stop-opacity="0.1"/>
</linearGradient>
<linearGradient id="paint5_linear" x1="39820.3" y1="47456.4" x2="39820.3" y2="36553.1" gradientUnits="userSpaceOnUse">
<stop stop-color="#808080" stop-opacity="0.25"/>
<stop offset="0.54" stop-color="#808080" stop-opacity="0.12"/>
<stop offset="1" stop-color="#808080" stop-opacity="0.1"/>
</linearGradient>
<linearGradient id="paint6_linear" x1="19382.6" y1="40586.1" x2="19382.6" y2="30472.2" gradientUnits="userSpaceOnUse">
<stop stop-color="#808080" stop-opacity="0.25"/>
<stop offset="0.54" stop-color="#808080" stop-opacity="0.12"/>
<stop offset="1" stop-color="#808080" stop-opacity="0.1"/>
</linearGradient>
<linearGradient id="paint7_linear" x1="47313.6" y1="8928.04" x2="47313.6" y2="8332.98" gradientUnits="userSpaceOnUse">
<stop stop-color="#808080" stop-opacity="0.25"/>
<stop offset="0.54" stop-color="#808080" stop-opacity="0.12"/>
<stop offset="1" stop-color="#808080" stop-opacity="0.1"/>
</linearGradient>
<linearGradient id="paint8_linear" x1="47313.6" y1="8928.04" x2="47313.6" y2="8332.98" gradientUnits="userSpaceOnUse">
<stop stop-color="#808080" stop-opacity="0.25"/>
<stop offset="0.54" stop-color="#808080" stop-opacity="0.12"/>
<stop offset="1" stop-color="#808080" stop-opacity="0.1"/>
</linearGradient>
<linearGradient id="paint9_linear" x1="47313.6" y1="8862.19" x2="47313.6" y2="8267.12" gradientUnits="userSpaceOnUse">
<stop stop-color="#808080" stop-opacity="0.25"/>
<stop offset="0.54" stop-color="#808080" stop-opacity="0.12"/>
<stop offset="1" stop-color="#808080" stop-opacity="0.1"/>
</linearGradient>
<clipPath id="clip0">
<rect width="726" height="575" fill="white"/>
</clipPath>
</defs>
</svg>
