<svg width="60" height="60" viewBox="0 0 60 60" fill="none" xmlns="http://www.w3.org/2000/svg">
<mask id="mask0" mask-type="alpha" maskUnits="userSpaceOnUse" x="0" y="0" width="60" height="60">
<circle cx="30" cy="30" r="30" fill="#A1167A"/>
</mask>
<g mask="url(#mask0)">
<circle cx="30" cy="30" r="30" fill="#88DFFB"/>
<path d="M51.2132 51.2132C56.055 46.3715 59.0947 40.0191 59.8276 33.2112C60.5606 26.4032 58.9425 19.5494 55.2423 13.7881C51.542 8.02669 45.9822 3.7045 39.4863 1.53932C32.9904 -0.625853 25.9492 -0.503709 19.5323 1.88547L30 30L51.2132 51.2132Z" fill="#A1167A"/>
<path d="M26.5 34C31.5 9.5 7.5 20 -19 27.5L-6 4.5L11.5 -12H22C22.6458 -6.10716 60 -12 35 27.5C93.5 65.5 70.2925 61.3415 67 62C42 67 20.9694 61.1 26.5 34Z" fill="#A1167A"/>
</g>
</svg>
