<svg class="diagram-root" style="background: #f5f6f6" xmlns="http://www.w3.org/2000/svg" xmlns:xlink="http://www.w3.org/1999/xlink"><style>.diagram-root { font-family: "Helvetica Neue", sans-serif; font-size: 12px; } .t { overflow: visible; } .t-bg { y: 40; fill: #fff;   } .th { fill: #005aa0;   } .tht { fill: #fff; font-size: 14px;  } .tf { fill: #323c46; overflow: visible; } .tf.pk { fill: #005aa0; font-weight: bold; } .tf.fk { font-weight: bold; } .ty { fill: #adb1b5; font-weight: normal; text-anchor: end; } .r { fill: transparent; stroke: #c3c3c3; stroke-width: 1; } .l { stroke: 1; } .i { fill: #c2c7ce; stroke: #c2c7ce; } .i.ix { fill: #afb3b6; stroke: #000; } .fa { fill: transparent; overflow: visible; } .fa .bg.hover { fill: #f7f7f7; } .c { cy: 12; r: 4; stroke: #d2d2dc; fill: #d2d2dc; } .hr { fill: transparent; stroke: #323c46; stroke-opacity: 0.035; stroke-width: 13; } .dc { stroke: #fa5a3c; fill: #fa5a3c; } .x { stroke: white; stroke-width: 1; } .hl .th { fill: #1b9bff; } .hl .tht {  } .fhl .bg { fill: #e7f4ff; } .fhls .bg {  } .r.hl { stroke: #1b9bff; } .dim { opacity: 0.25; }</style><g class="drawing-wrapper" transform="translate(277.41999999999996, 452.37999999999994) scale(1,1)"><g class="rs"><path d="M 78.33333333333323 310.33333333333337 m -1, 0 a 1,1 0 1,0 2,0 a 1,1 0 1,0 -2,0 M 78.33333333333323 310.33333333333337 m -0.5, 0 a 0.5,0.5 0 1,0 1,0 a 0.5,0.5 0 1,0 -1,0  M78.33333333333323 310.33333333333337 L78.33333333333323 310.33333333333337 66.33333333333323 310.33333333333337 M 78.33333333333323 316.33333333333337 m -1, 0 a 1,1 0 1,0 2,0 a 1,1 0 1,0 -2,0 M 78.33333333333323 316.33333333333337 m -0.5, 0 a 0.5,0.5 0 1,0 1,0 a 0.5,0.5 0 1,0 -1,0  M78.33333333333323 316.33333333333337 L78.33333333333323 316.33333333333337 71.33333333333323 310.33333333333337 78.33333333333323 304.33333333333337 M 78.33333333333323 304.33333333333337 m -1, 0 a 1,1 0 1,0 2,0 a 1,1 0 1,0 -2,0 M 78.33333333333323 304.33333333333337 m -0.5, 0 a 0.5,0.5 0 1,0 1,0 a 0.5,0.5 0 1,0 -1,0  M66.33333333333323 310.33333333333337 Q 47.78 310.33333333333337, 29.22 240.36 T -7.899999999999999 170.3866666666667 M -19.9 170.3866666666667 m -1, 0 a 1,1 0 1,0 2,0 a 1,1 0 1,0 -2,0 M -19.9 170.3866666666667 m -0.5, 0 a 0.5,0.5 0 1,0 1,0 a 0.5,0.5 0 1,0 -1,0  M-19.9 170.3866666666667 L-19.9 170.3866666666667 -7.899999999999999 170.3866666666667 M-13.899999999999999 176.3866666666667 L-13.899999999999999 176.3866666666667 -13.899999999999999 164.3866666666667" id="h2892939213" class="r"></path><path d="M 78.33333333333323 335.33333333333337 m -1, 0 a 1,1 0 1,0 2,0 a 1,1 0 1,0 -2,0 M 78.33333333333323 335.33333333333337 m -0.5, 0 a 0.5,0.5 0 1,0 1,0 a 0.5,0.5 0 1,0 -1,0  M78.33333333333323 335.33333333333337 L78.33333333333323 335.33333333333337 66.33333333333323 335.33333333333337 M 78.33333333333323 341.33333333333337 m -1, 0 a 1,1 0 1,0 2,0 a 1,1 0 1,0 -2,0 M 78.33333333333323 341.33333333333337 m -0.5, 0 a 0.5,0.5 0 1,0 1,0 a 0.5,0.5 0 1,0 -1,0  M78.33333333333323 341.33333333333337 L78.33333333333323 341.33333333333337 71.33333333333323 335.33333333333337 78.33333333333323 329.33333333333337 M 78.33333333333323 329.33333333333337 m -1, 0 a 1,1 0 1,0 2,0 a 1,1 0 1,0 -2,0 M 78.33333333333323 329.33333333333337 m -0.5, 0 a 0.5,0.5 0 1,0 1,0 a 0.5,0.5 0 1,0 -1,0  M66.33333333333323 335.33333333333337 C -19.136819397593804 335.33333333333337, -1.136819397593868 443.6666666666667, 36.333333333333336 443.6666666666667 M 48.333333333333336 443.6666666666667 m -1, 0 a 1,1 0 1,0 2,0 a 1,1 0 1,0 -2,0 M 48.333333333333336 443.6666666666667 m -0.5, 0 a 0.5,0.5 0 1,0 1,0 a 0.5,0.5 0 1,0 -1,0  M48.333333333333336 443.6666666666667 L48.333333333333336 443.6666666666667 36.333333333333336 443.6666666666667 M42.333333333333336 449.6666666666667 L42.333333333333336 449.6666666666667 42.333333333333336 437.6666666666667" id="h2094526542" class="r"></path><path d="M -21.16 -265.38 m -1, 0 a 1,1 0 1,0 2,0 a 1,1 0 1,0 -2,0 M -21.16 -265.38 m -0.5, 0 a 0.5,0.5 0 1,0 1,0 a 0.5,0.5 0 1,0 -1,0  M-21.16 -265.38 L-21.16 -265.38 -9.16 -265.38 M -21.16 -259.38 m -1, 0 a 1,1 0 1,0 2,0 a 1,1 0 1,0 -2,0 M -21.16 -259.38 m -0.5, 0 a 0.5,0.5 0 1,0 1,0 a 0.5,0.5 0 1,0 -1,0  M-21.16 -259.38 L-21.16 -259.38 -14.16 -265.38 -21.16 -271.38 M -21.16 -271.38 m -1, 0 a 1,1 0 1,0 2,0 a 1,1 0 1,0 -2,0 M -21.16 -271.38 m -0.5, 0 a 0.5,0.5 0 1,0 1,0 a 0.5,0.5 0 1,0 -1,0  M-9.16 -265.38 C 42.85600000000001 -265.38, 42.1 170.3866666666667, -7.899999999999999 170.3866666666667 M -19.9 170.3866666666667 m -1, 0 a 1,1 0 1,0 2,0 a 1,1 0 1,0 -2,0 M -19.9 170.3866666666667 m -0.5, 0 a 0.5,0.5 0 1,0 1,0 a 0.5,0.5 0 1,0 -1,0  M-19.9 170.3866666666667 L-19.9 170.3866666666667 -7.899999999999999 170.3866666666667 M-13.899999999999999 176.3866666666667 L-13.899999999999999 176.3866666666667 -13.899999999999999 164.3866666666667" id="h282124890" class="r"></path><path d="M 462.63 22.569999999999993 m -1, 0 a 1,1 0 1,0 2,0 a 1,1 0 1,0 -2,0 M 462.63 22.569999999999993 m -0.5, 0 a 0.5,0.5 0 1,0 1,0 a 0.5,0.5 0 1,0 -1,0  M462.63 22.569999999999993 L462.63 22.569999999999993 474.63 22.569999999999993 M 462.63 28.569999999999993 m -1, 0 a 1,1 0 1,0 2,0 a 1,1 0 1,0 -2,0 M 462.63 28.569999999999993 m -0.5, 0 a 0.5,0.5 0 1,0 1,0 a 0.5,0.5 0 1,0 -1,0  M462.63 28.569999999999993 L462.63 28.569999999999993 469.63 22.569999999999993 462.63 16.569999999999993 M 462.63 16.569999999999993 m -1, 0 a 1,1 0 1,0 2,0 a 1,1 0 1,0 -2,0 M 462.63 16.569999999999993 m -0.5, 0 a 0.5,0.5 0 1,0 1,0 a 0.5,0.5 0 1,0 -1,0  M474.63 22.569999999999993 Q 494.6 22.569999999999993, 514.57 -61.76 T 554.5166666666668 -146.0966666666666 M 566.5166666666668 -146.0966666666666 m -1, 0 a 1,1 0 1,0 2,0 a 1,1 0 1,0 -2,0 M 566.5166666666668 -146.0966666666666 m -0.5, 0 a 0.5,0.5 0 1,0 1,0 a 0.5,0.5 0 1,0 -1,0  M566.5166666666668 -146.0966666666666 L566.5166666666668 -146.0966666666666 554.5166666666668 -146.0966666666666 M560.5166666666668 -140.0966666666666 L560.5166666666668 -140.0966666666666 560.5166666666668 -152.0966666666666" id="h4216442797" class="r"></path><path d="M -43.85 -63.50999999999999 m -1, 0 a 1,1 0 1,0 2,0 a 1,1 0 1,0 -2,0 M -43.85 -63.50999999999999 m -0.5, 0 a 0.5,0.5 0 1,0 1,0 a 0.5,0.5 0 1,0 -1,0  M-43.85 -63.50999999999999 L-43.85 -63.50999999999999 -31.85 -63.50999999999999 M -43.85 -57.50999999999999 m -1, 0 a 1,1 0 1,0 2,0 a 1,1 0 1,0 -2,0 M -43.85 -57.50999999999999 m -0.5, 0 a 0.5,0.5 0 1,0 1,0 a 0.5,0.5 0 1,0 -1,0  M-43.85 -57.50999999999999 L-43.85 -57.50999999999999 -36.85 -63.50999999999999 -43.85 -69.50999999999999 M -43.85 -69.50999999999999 m -1, 0 a 1,1 0 1,0 2,0 a 1,1 0 1,0 -2,0 M -43.85 -69.50999999999999 m -0.5, 0 a 0.5,0.5 0 1,0 1,0 a 0.5,0.5 0 1,0 -1,0  M-31.85 -63.50999999999999 C 56.470000000000006 -63.50999999999999, 42.1 170.3866666666667, -7.899999999999999 170.3866666666667 M -19.9 170.3866666666667 m -1, 0 a 1,1 0 1,0 2,0 a 1,1 0 1,0 -2,0 M -19.9 170.3866666666667 m -0.5, 0 a 0.5,0.5 0 1,0 1,0 a 0.5,0.5 0 1,0 -1,0  M-19.9 170.3866666666667 L-19.9 170.3866666666667 -7.899999999999999 170.3866666666667 M-13.899999999999999 176.3866666666667 L-13.899999999999999 176.3866666666667 -13.899999999999999 164.3866666666667" id="h1069021978" class="r"></path><path d="M 115.32 -92.61000000000001 m -1, 0 a 1,1 0 1,0 2,0 a 1,1 0 1,0 -2,0 M 115.32 -92.61000000000001 m -0.5, 0 a 0.5,0.5 0 1,0 1,0 a 0.5,0.5 0 1,0 -1,0  M115.32 -92.61000000000001 L115.32 -92.61000000000001 103.32 -92.61000000000001 M 115.32 -86.61000000000001 m -1, 0 a 1,1 0 1,0 2,0 a 1,1 0 1,0 -2,0 M 115.32 -86.61000000000001 m -0.5, 0 a 0.5,0.5 0 1,0 1,0 a 0.5,0.5 0 1,0 -1,0  M115.32 -86.61000000000001 L115.32 -86.61000000000001 108.32 -92.61000000000001 115.32 -98.61000000000001 M 115.32 -98.61000000000001 m -1, 0 a 1,1 0 1,0 2,0 a 1,1 0 1,0 -2,0 M 115.32 -98.61000000000001 m -0.5, 0 a 0.5,0.5 0 1,0 1,0 a 0.5,0.5 0 1,0 -1,0  M103.32 -92.61000000000001 Q 69.53 -92.61000000000001, 35.74 -90.56 T -31.85 -88.50999999999999 M -43.85 -88.50999999999999 m -1, 0 a 1,1 0 1,0 2,0 a 1,1 0 1,0 -2,0 M -43.85 -88.50999999999999 m -0.5, 0 a 0.5,0.5 0 1,0 1,0 a 0.5,0.5 0 1,0 -1,0  M-43.85 -88.50999999999999 L-43.85 -88.50999999999999 -31.85 -88.50999999999999 M-37.85 -82.50999999999999 L-37.85 -82.50999999999999 -37.85 -94.50999999999999" id="h822461681" class="r"></path><path d="M 115.32 -67.61000000000001 m -1, 0 a 1,1 0 1,0 2,0 a 1,1 0 1,0 -2,0 M 115.32 -67.61000000000001 m -0.5, 0 a 0.5,0.5 0 1,0 1,0 a 0.5,0.5 0 1,0 -1,0  M115.32 -67.61000000000001 L115.32 -67.61000000000001 103.32 -67.61000000000001 M 115.32 -61.610000000000014 m -1, 0 a 1,1 0 1,0 2,0 a 1,1 0 1,0 -2,0 M 115.32 -61.610000000000014 m -0.5, 0 a 0.5,0.5 0 1,0 1,0 a 0.5,0.5 0 1,0 -1,0  M115.32 -61.610000000000014 L115.32 -61.610000000000014 108.32 -67.61000000000001 115.32 -73.61000000000001 M 115.32 -73.61000000000001 m -1, 0 a 1,1 0 1,0 2,0 a 1,1 0 1,0 -2,0 M 115.32 -73.61000000000001 m -0.5, 0 a 0.5,0.5 0 1,0 1,0 a 0.5,0.5 0 1,0 -1,0  M103.32 -67.61000000000001 C 53.31999999999999 -67.61000000000001, -55.724000000000046 -177.43, 285.06 -177.43 M 297.06 -177.43 m -1, 0 a 1,1 0 1,0 2,0 a 1,1 0 1,0 -2,0 M 297.06 -177.43 m -0.5, 0 a 0.5,0.5 0 1,0 1,0 a 0.5,0.5 0 1,0 -1,0  M297.06 -177.43 L297.06 -177.43 285.06 -177.43 M291.06 -171.43 L291.06 -171.43 291.06 -183.43" id="h4036165651" class="r"></path><path d="M 111.35 -256.33 m -1, 0 a 1,1 0 1,0 2,0 a 1,1 0 1,0 -2,0 M 111.35 -256.33 m -0.5, 0 a 0.5,0.5 0 1,0 1,0 a 0.5,0.5 0 1,0 -1,0  M111.35 -256.33 L111.35 -256.33 99.35 -256.33 M 111.35 -250.32999999999998 m -1, 0 a 1,1 0 1,0 2,0 a 1,1 0 1,0 -2,0 M 111.35 -250.32999999999998 m -0.5, 0 a 0.5,0.5 0 1,0 1,0 a 0.5,0.5 0 1,0 -1,0  M111.35 -250.32999999999998 L111.35 -250.32999999999998 104.35 -256.33 111.35 -262.33 M 111.35 -262.33 m -1, 0 a 1,1 0 1,0 2,0 a 1,1 0 1,0 -2,0 M 111.35 -262.33 m -0.5, 0 a 0.5,0.5 0 1,0 1,0 a 0.5,0.5 0 1,0 -1,0  M99.35 -256.33 Q 72.22 -256.33, 45.1 -310.85 T -9.16 -365.38 M -21.16 -365.38 m -1, 0 a 1,1 0 1,0 2,0 a 1,1 0 1,0 -2,0 M -21.16 -365.38 m -0.5, 0 a 0.5,0.5 0 1,0 1,0 a 0.5,0.5 0 1,0 -1,0  M-21.16 -365.38 L-21.16 -365.38 -9.16 -365.38 M-15.16 -359.38 L-15.16 -359.38 -15.16 -371.38" id="h3243613797" class="r"></path><path d="M 111.35 -231.32999999999998 m -1, 0 a 1,1 0 1,0 2,0 a 1,1 0 1,0 -2,0 M 111.35 -231.32999999999998 m -0.5, 0 a 0.5,0.5 0 1,0 1,0 a 0.5,0.5 0 1,0 -1,0  M111.35 -231.32999999999998 L111.35 -231.32999999999998 99.35 -231.32999999999998 M 111.35 -225.32999999999998 m -1, 0 a 1,1 0 1,0 2,0 a 1,1 0 1,0 -2,0 M 111.35 -225.32999999999998 m -0.5, 0 a 0.5,0.5 0 1,0 1,0 a 0.5,0.5 0 1,0 -1,0  M111.35 -225.32999999999998 L111.35 -225.32999999999998 104.35 -231.32999999999998 111.35 -237.32999999999998 M 111.35 -237.32999999999998 m -1, 0 a 1,1 0 1,0 2,0 a 1,1 0 1,0 -2,0 M 111.35 -237.32999999999998 m -0.5, 0 a 0.5,0.5 0 1,0 1,0 a 0.5,0.5 0 1,0 -1,0  M99.35 -231.32999999999998 Q 66.55 -231.32999999999998, 33.75 -159.92 T -31.85 -88.50999999999999 M -43.85 -88.50999999999999 m -1, 0 a 1,1 0 1,0 2,0 a 1,1 0 1,0 -2,0 M -43.85 -88.50999999999999 m -0.5, 0 a 0.5,0.5 0 1,0 1,0 a 0.5,0.5 0 1,0 -1,0  M-43.85 -88.50999999999999 L-43.85 -88.50999999999999 -31.85 -88.50999999999999 M-37.85 -82.50999999999999 L-37.85 -82.50999999999999 -37.85 -94.50999999999999" id="h2504080062" class="r"></path><path d="M 374.29 205.57 m -1, 0 a 1,1 0 1,0 2,0 a 1,1 0 1,0 -2,0 M 374.29 205.57 m -0.5, 0 a 0.5,0.5 0 1,0 1,0 a 0.5,0.5 0 1,0 -1,0  M374.29 205.57 L374.29 205.57 362.29 205.57 M 374.29 211.57 m -1, 0 a 1,1 0 1,0 2,0 a 1,1 0 1,0 -2,0 M 374.29 211.57 m -0.5, 0 a 0.5,0.5 0 1,0 1,0 a 0.5,0.5 0 1,0 -1,0  M374.29 211.57 L374.29 211.57 367.29 205.57 374.29 199.57 M 374.29 199.57 m -1, 0 a 1,1 0 1,0 2,0 a 1,1 0 1,0 -2,0 M 374.29 199.57 m -0.5, 0 a 0.5,0.5 0 1,0 1,0 a 0.5,0.5 0 1,0 -1,0  M362.29 205.57 Q 269.75 205.57, 177.2 187.98 T -7.899999999999999 170.3866666666667 M -19.9 170.3866666666667 m -1, 0 a 1,1 0 1,0 2,0 a 1,1 0 1,0 -2,0 M -19.9 170.3866666666667 m -0.5, 0 a 0.5,0.5 0 1,0 1,0 a 0.5,0.5 0 1,0 -1,0  M-19.9 170.3866666666667 L-19.9 170.3866666666667 -7.899999999999999 170.3866666666667 M-13.899999999999999 176.3866666666667 L-13.899999999999999 176.3866666666667 -13.899999999999999 164.3866666666667" id="h3534734814" class="r"></path><path d="M 482.22 305.57 m -1, 0 a 1,1 0 1,0 2,0 a 1,1 0 1,0 -2,0 M 482.22 305.57 m -0.5, 0 a 0.5,0.5 0 1,0 1,0 a 0.5,0.5 0 1,0 -1,0  M482.22 305.57 L482.22 305.57 494.22 305.57 M 482.22 311.57 m -1, 0 a 1,1 0 1,0 2,0 a 1,1 0 1,0 -2,0 M 482.22 311.57 m -0.5, 0 a 0.5,0.5 0 1,0 1,0 a 0.5,0.5 0 1,0 -1,0  M482.22 311.57 L482.22 311.57 489.22 305.57 482.22 299.57 M 482.22 299.57 m -1, 0 a 1,1 0 1,0 2,0 a 1,1 0 1,0 -2,0 M 482.22 299.57 m -0.5, 0 a 0.5,0.5 0 1,0 1,0 a 0.5,0.5 0 1,0 -1,0  M494.22 305.57 C 544.22 305.57, 555.974 -177.43, 474.63 -177.43 M 462.63 -177.43 m -1, 0 a 1,1 0 1,0 2,0 a 1,1 0 1,0 -2,0 M 462.63 -177.43 m -0.5, 0 a 0.5,0.5 0 1,0 1,0 a 0.5,0.5 0 1,0 -1,0  M462.63 -177.43 L462.63 -177.43 474.63 -177.43 M468.63 -171.43 L468.63 -171.43 468.63 -183.43" id="h306338707" class="r"></path></g><g class="hrs"></g><g class="ts"><svg width="199.95" height="200" x="-221.11" y="-422.38" id="h1907095664" class="t"><rect height="40" width="199.95" class="th"></rect><text x="13" y="25" class="tht">Coupon</text><rect height="160" width="199.95" class="t-bg" y="40"></rect><text x="13" y="61" class="tf pk">id<tspan x="186.95" class="ty">integer</tspan></text><path d="M7,14A2,2 0 0,1 5,12A2,2 0 0,1 7,10A2,2 0 0,1 9,12A2,2 0 0,1 7,14M12.65,10C11.83,7.67 9.61,6 7, 6A6, 6 0 0, 0 1, 12A6, 6 0 0, 0 7, 18C9.61, 18 11.83, 16.33 12.65, 14H17V18H21V14H23V10H12.65Z" class="i pk" transform="translate(126.23333282470702, 48) scale(0.65)"></path><text x="13" y="86" class="tf">type<tspan x="186.95" class="ty">string</tspan></text><text x="13" y="111" class="tf">expereation_date<tspan x="186.95" class="ty">DateTime</tspan></text><text x="13" y="136" class="tf">discount<tspan x="186.95" class="ty">Decimal</tspan></text><text x="13" y="161" class="tf fk">user_id</text><text x="13" y="186" class="tf">is_used<tspan x="186.95" class="ty">Boolean</tspan></text></svg><svg width="165.57" height="275" x="297.06" y="-234.43" id="h537593056" class="t"><rect height="40" width="165.57" class="th"></rect><text x="13" y="25" class="tht">Products</text><rect height="235" width="165.57" class="t-bg" y="40"></rect><text x="13" y="61" class="tf pk">id<tspan x="152.57" class="ty">integer</tspan></text><path d="M7,14A2,2 0 0,1 5,12A2,2 0 0,1 7,10A2,2 0 0,1 9,12A2,2 0 0,1 7,14M12.65,10C11.83,7.67 9.61,6 7, 6A6, 6 0 0, 0 1, 12A6, 6 0 0, 0 7, 18C9.61, 18 11.83, 16.33 12.65, 14H17V18H21V14H23V10H12.65Z" class="i pk" transform="translate(91.85333282470702, 48) scale(0.65)"></path><text x="13" y="86" class="tf">type<tspan x="152.57" class="ty">String</tspan></text><text x="13" y="111" class="tf">product_image<tspan x="152.57" class="ty">string</tspan></text><text x="13" y="136" class="tf">name<tspan x="152.57" class="ty">String</tspan></text><path d="M22,18V22H18V19H15V16H12L9.74,13.74C9.19,13.91 8.61,14 8,14A6,6 0 0,1 2,8A6,6 0 0,1 8,2A6,6 0 0,1 14,8C14,8.61 13.91, 9.19 13.74, 9.74L22, 18M7, 5A2, 2 0 0, 0 5, 7A2, 2 0 0, 0 7, 9A2, 2 0 0, 0 9, 7A2, 2 0 0, 0 7, 5Z" class="i uq" transform="translate(102.15333206176757, 125.5) scale(0.5)"></path><text x="13" y="161" class="tf">slug<tspan x="152.57" class="ty">String</tspan></text><text x="13" y="186" class="tf">cost<tspan x="152.57" class="ty">Decimal</tspan></text><text x="13" y="211" class="tf">description_short</text><text x="13" y="236" class="tf">description_long<tspan x="152.57" class="ty">Text</tspan></text><text x="13" y="261" class="tf fk">discount_id</text></svg><svg width="211.57" height="175" x="-255.42" y="-145.51" id="h1100145647" class="t"><rect height="40" width="211.57" class="th"></rect><text x="13" y="25" class="tht">Purchases</text><rect height="135" width="211.57" class="t-bg" y="40"></rect><text x="13" y="61" class="tf pk">id<tspan x="198.57" class="ty">integer</tspan></text><path d="M7,14A2,2 0 0,1 5,12A2,2 0 0,1 7,10A2,2 0 0,1 9,12A2,2 0 0,1 7,14M12.65,10C11.83,7.67 9.61,6 7, 6A6, 6 0 0, 0 1, 12A6, 6 0 0, 0 7, 18C9.61, 18 11.83, 16.33 12.65, 14H17V18H21V14H23V10H12.65Z" class="i pk" transform="translate(137.85333282470702, 48) scale(0.65)"></path><text x="13" y="86" class="tf fk">user_id</text><text x="13" y="111" class="tf">purchase_date<tspan x="198.57" class="ty">Datetime</tspan></text><text x="13" y="136" class="tf">payment_confirmation<tspan x="198.57" class="ty">String</tspan></text><text x="13" y="161" class="tf">is_checkout<tspan x="198.57" class="ty">Boolean</tspan></text></svg><svg width="118.2" height="150" x="115.32" y="-174.61" id="h2109221529" class="t"><rect height="40" width="118.2" class="th"></rect><text x="13" y="25" class="tht">PurchaseItem</text><rect height="110" width="118.2" class="t-bg" y="40"></rect><text x="13" y="61" class="tf pk">id<tspan x="105.2" class="ty">integer</tspan></text><path d="M7,14A2,2 0 0,1 5,12A2,2 0 0,1 7,10A2,2 0 0,1 9,12A2,2 0 0,1 7,14M12.65,10C11.83,7.67 9.61,6 7, 6A6, 6 0 0, 0 1, 12A6, 6 0 0, 0 7, 18C9.61, 18 11.83, 16.33 12.65, 14H17V18H21V14H23V10H12.65Z" class="i pk" transform="translate(44.483332824707034, 48) scale(0.65)"></path><text x="13" y="86" class="tf fk">purchase_id</text><text x="13" y="111" class="tf fk">prodcut_id</text><text x="13" y="136" class="tf">count<tspan x="105.2" class="ty">int</tspan></text></svg><svg width="131.38" height="200" x="111.35" y="-413.33" id="h3766528632" class="t"><rect height="40" width="131.38" class="th"></rect><text x="13" y="25" class="tht">OrderOption</text><rect height="160" width="131.38" class="t-bg" y="40"></rect><text x="13" y="61" class="tf pk">id<tspan x="118.38" class="ty">integer</tspan></text><path d="M7,14A2,2 0 0,1 5,12A2,2 0 0,1 7,10A2,2 0 0,1 9,12A2,2 0 0,1 7,14M12.65,10C11.83,7.67 9.61,6 7, 6A6, 6 0 0, 0 1, 12A6, 6 0 0, 0 7, 18C9.61, 18 11.83, 16.33 12.65, 14H17V18H21V14H23V10H12.65Z" class="i pk" transform="translate(57.66333282470703, 48) scale(0.65)"></path><text x="13" y="86" class="tf">address</text><text x="13" y="111" class="tf">shipping_type</text><text x="13" y="136" class="tf">size_type<tspan x="118.38" class="ty">string</tspan></text><text x="13" y="161" class="tf fk">coupon_id</text><text x="13" y="186" class="tf fk">purchase_id</text></svg><svg width="107.93" height="175" x="374.29" y="148.57" id="h160511972" class="t"><rect height="40" width="107.93" class="th"></rect><text x="13" y="25" class="tht">Review</text><rect height="135" width="107.93" class="t-bg" y="40"></rect><text x="13" y="61" class="tf fk">user_id</text><text x="13" y="86" class="tf">title</text><text x="13" y="111" class="tf">body</text><text x="13" y="136" class="tf">star_rating</text><text x="13" y="161" class="tf fk">product_id</text></svg><svg width="173.53" height="125" x="48.333333333333336" y="386.6666666666667" id="h53935491" class="t"><rect height="40" width="173.53" class="th"></rect><text x="13" y="25" class="tht">Role</text><rect height="85" width="173.53" class="t-bg" y="40"></rect><text x="13" y="61" class="tf pk">id<tspan x="160.53" class="ty">integer</tspan></text><path d="M7,14A2,2 0 0,1 5,12A2,2 0 0,1 7,10A2,2 0 0,1 9,12A2,2 0 0,1 7,14M12.65,10C11.83,7.67 9.61,6 7, 6A6, 6 0 0, 0 1, 12A6, 6 0 0, 0 7, 18C9.61, 18 11.83, 16.33 12.65, 14H17V18H21V14H23V10H12.65Z" class="i pk" transform="translate(99.81333282470703, 48) scale(0.65)"></path><text x="13" y="86" class="tf">name<tspan x="160.53" class="ty">String(80)</tspan></text><text x="13" y="111" class="tf">description<tspan x="160.53" class="ty">String(255)</tspan></text></svg><svg width="91.87" height="100" x="78.33333333333323" y="253.33333333333337" id="h2436163717" class="t"><rect height="40" width="91.87" class="th"></rect><text x="13" y="25" class="tht">UserRoles</text><rect height="60" width="91.87" class="t-bg" y="40"></rect><text x="13" y="61" class="tf fk">user_id</text><text x="13" y="86" class="tf fk">role_id</text></svg><svg width="197.37" height="150" x="566.5166666666668" y="-203.0966666666666" id="h1992799065" class="t"><rect height="40" width="197.37" class="th"></rect><text x="13" y="25" class="tht">Discount</text><rect height="110" width="197.37" class="t-bg" y="40"></rect><text x="13" y="61" class="tf pk">id<tspan x="184.37" class="ty">integer</tspan></text><path d="M7,14A2,2 0 0,1 5,12A2,2 0 0,1 7,10A2,2 0 0,1 9,12A2,2 0 0,1 7,14M12.65,10C11.83,7.67 9.61,6 7, 6A6, 6 0 0, 0 1, 12A6, 6 0 0, 0 7, 18C9.61, 18 11.83, 16.33 12.65, 14H17V18H21V14H23V10H12.65Z" class="i pk" transform="translate(123.65333282470704, 48) scale(0.65)"></path><text x="13" y="86" class="tf">type<tspan x="184.37" class="ty">string</tspan></text><text x="13" y="111" class="tf">discount</text><text x="13" y="136" class="tf">experiation_date<tspan x="184.37" class="ty">DateTime</tspan></text></svg><svg width="178.38" height="250" x="-198.27999999999994" y="113.38666666666673" id="h1537667952" class="t"><rect height="40" width="178.38" class="th"></rect><text x="13" y="25" class="tht">User</text><rect height="210" width="178.38" class="t-bg" y="40"></rect><text x="13" y="61" class="tf pk">id<tspan x="165.38" class="ty">integer</tspan></text><path d="M7,14A2,2 0 0,1 5,12A2,2 0 0,1 7,10A2,2 0 0,1 9,12A2,2 0 0,1 7,14M12.65,10C11.83,7.67 9.61,6 7, 6A6, 6 0 0, 0 1, 12A6, 6 0 0, 0 7, 18C9.61, 18 11.83, 16.33 12.65, 14H17V18H21V14H23V10H12.65Z" class="i pk" transform="translate(104.66333282470703, 48) scale(0.65)"></path><text x="13" y="86" class="tf">username<tspan x="165.38" class="ty">String(50)</tspan></text><path d="M22,18V22H18V19H15V16H12L9.74,13.74C9.19,13.91 8.61,14 8,14A6,6 0 0,1 2,8A6,6 0 0,1 8,2A6,6 0 0,1 14,8C14,8.61 13.91, 9.19 13.74, 9.74L22, 18M7, 5A2, 2 0 0, 0 5, 7A2, 2 0 0, 0 7, 9A2, 2 0 0, 0 9, 7A2, 2 0 0, 0 7, 5Z" class="i uq" transform="translate(93.22999847412109, 75.5) scale(0.5)"></path><text x="13" y="111" class="tf">email<tspan x="165.38" class="ty">String(50)</tspan></text><path d="M22,18V22H18V19H15V16H12L9.74,13.74C9.19,13.91 8.61,14 8,14A6,6 0 0,1 2,8A6,6 0 0,1 8,2A6,6 0 0,1 14,8C14,8.61 13.91, 9.19 13.74, 9.74L22, 18M7, 5A2, 2 0 0, 0 5, 7A2, 2 0 0, 0 7, 9A2, 2 0 0, 0 9, 7A2, 2 0 0, 0 7, 5Z" class="i uq" transform="translate(93.22999847412109, 100.5) scale(0.5)"></path><text x="13" y="136" class="tf">password<tspan x="165.38" class="ty">String(40)</tspan></text><text x="13" y="161" class="tf">last_login_at<tspan x="165.38" class="ty">DateTime</tspan></text><text x="13" y="186" class="tf">current_login<tspan x="165.38" class="ty">DateTime</tspan></text><text x="13" y="211" class="tf">login_count<tspan x="165.38" class="ty">Integer</tspan></text><text x="13" y="236" class="tf">confirmed_at<tspan x="165.38" class="ty">DateTime</tspan></text></svg></g></g><text class="qdbd-link" x="10" y="20">www.quickdatabasediagrams.com</text></svg>